<mxfile host="app.diagrams.net" agent="Mozilla/5.0 (Windows NT 10.0; Win64; x64) AppleWebKit/537.36 (KHTML, like Gecko) Chrome/129.0.0.0 Safari/537.36" version="24.7.17">
  <diagram name="Page-1" id="S_YC0ZYZWbaa-WgekSZE">
    <mxGraphModel dx="250" dy="575" grid="1" gridSize="10" guides="1" tooltips="1" connect="1" arrows="1" fold="1" page="1" pageScale="1" pageWidth="850" pageHeight="1100" math="0" shadow="0">
      <root>
        <mxCell id="0" />
        <mxCell id="1" parent="0" />
        <mxCell id="5lB07v6buuz0UZQHZTTG-427" style="edgeStyle=orthogonalEdgeStyle;rounded=0;orthogonalLoop=1;jettySize=auto;html=1;exitX=0.5;exitY=1;exitDx=0;exitDy=0;exitPerimeter=0;entryX=0.5;entryY=0;entryDx=0;entryDy=0;" edge="1" parent="1" target="5lB07v6buuz0UZQHZTTG-429">
          <mxGeometry relative="1" as="geometry">
            <mxPoint x="1669.8" y="80" as="sourcePoint" />
          </mxGeometry>
        </mxCell>
        <mxCell id="5lB07v6buuz0UZQHZTTG-428" style="edgeStyle=orthogonalEdgeStyle;rounded=0;orthogonalLoop=1;jettySize=auto;html=1;exitX=0.5;exitY=1;exitDx=0;exitDy=0;" edge="1" parent="1" source="5lB07v6buuz0UZQHZTTG-429" target="5lB07v6buuz0UZQHZTTG-432">
          <mxGeometry relative="1" as="geometry" />
        </mxCell>
        <mxCell id="5lB07v6buuz0UZQHZTTG-429" value="&lt;font size=&quot;3&quot;&gt;Login&lt;/font&gt;" style="rounded=1;whiteSpace=wrap;html=1;absoluteArcSize=1;arcSize=14;strokeWidth=2;" vertex="1" parent="1">
          <mxGeometry x="1599.8" y="120" width="140" height="60" as="geometry" />
        </mxCell>
        <mxCell id="5lB07v6buuz0UZQHZTTG-430" style="edgeStyle=orthogonalEdgeStyle;rounded=0;orthogonalLoop=1;jettySize=auto;html=1;exitX=0.5;exitY=1;exitDx=0;exitDy=0;exitPerimeter=0;entryX=0.5;entryY=0;entryDx=0;entryDy=0;" edge="1" parent="1" source="5lB07v6buuz0UZQHZTTG-432" target="5lB07v6buuz0UZQHZTTG-433">
          <mxGeometry relative="1" as="geometry" />
        </mxCell>
        <mxCell id="5lB07v6buuz0UZQHZTTG-431" style="edgeStyle=orthogonalEdgeStyle;rounded=0;orthogonalLoop=1;jettySize=auto;html=1;exitX=1;exitY=0.5;exitDx=0;exitDy=0;exitPerimeter=0;" edge="1" parent="1" source="5lB07v6buuz0UZQHZTTG-432">
          <mxGeometry relative="1" as="geometry">
            <mxPoint x="1750" y="255" as="targetPoint" />
            <Array as="points">
              <mxPoint x="1740" y="260" />
              <mxPoint x="1740" y="255" />
            </Array>
          </mxGeometry>
        </mxCell>
        <mxCell id="5lB07v6buuz0UZQHZTTG-432" value="&lt;font size=&quot;3&quot;&gt;Valid ?&amp;nbsp;&lt;/font&gt;" style="strokeWidth=2;html=1;shape=mxgraph.flowchart.decision;whiteSpace=wrap;" vertex="1" parent="1">
          <mxGeometry x="1619.8" y="210" width="100" height="100" as="geometry" />
        </mxCell>
        <mxCell id="5lB07v6buuz0UZQHZTTG-433" value="&lt;font size=&quot;3&quot;&gt;Display Successfully&amp;nbsp;&lt;/font&gt;" style="shape=label;html=1;strokeWidth=2;whiteSpace=wrap;rounded=1;arcSize=12;size=0.23;" vertex="1" parent="1">
          <mxGeometry x="1599.8" y="340" width="140" height="60" as="geometry" />
        </mxCell>
        <mxCell id="5lB07v6buuz0UZQHZTTG-434" style="edgeStyle=orthogonalEdgeStyle;rounded=0;orthogonalLoop=1;jettySize=auto;html=1;exitX=0.5;exitY=0;exitDx=0;exitDy=0;entryX=1;entryY=0.5;entryDx=0;entryDy=0;" edge="1" parent="1" source="5lB07v6buuz0UZQHZTTG-435" target="5lB07v6buuz0UZQHZTTG-429">
          <mxGeometry relative="1" as="geometry" />
        </mxCell>
        <mxCell id="5lB07v6buuz0UZQHZTTG-435" value="&lt;font size=&quot;3&quot;&gt;Display&amp;nbsp;&lt;/font&gt;&lt;div&gt;&lt;font size=&quot;3&quot;&gt;Incorrect Info&amp;nbsp;&lt;/font&gt;&lt;/div&gt;" style="shape=label;html=1;strokeWidth=2;whiteSpace=wrap;rounded=1;arcSize=12;size=0.23;" vertex="1" parent="1">
          <mxGeometry x="1750" y="240" width="140" height="60" as="geometry" />
        </mxCell>
        <mxCell id="5lB07v6buuz0UZQHZTTG-436" value="&lt;font style=&quot;font-size: 18px;&quot;&gt;No&lt;/font&gt;" style="text;html=1;align=center;verticalAlign=middle;whiteSpace=wrap;rounded=0;" vertex="1" parent="1">
          <mxGeometry x="1699.8" y="210" width="60" height="30" as="geometry" />
        </mxCell>
        <mxCell id="5lB07v6buuz0UZQHZTTG-437" value="&lt;font style=&quot;font-size: 18px;&quot;&gt;Yes&lt;/font&gt;" style="text;html=1;align=center;verticalAlign=middle;whiteSpace=wrap;rounded=0;" vertex="1" parent="1">
          <mxGeometry x="1604.8" y="310" width="60" height="30" as="geometry" />
        </mxCell>
        <mxCell id="5lB07v6buuz0UZQHZTTG-438" value="&lt;font size=&quot;3&quot;&gt;Display Delivery Partner Dashboard&lt;/font&gt;" style="shape=label;html=1;strokeWidth=2;whiteSpace=wrap;rounded=1;arcSize=12;size=0.23;" vertex="1" parent="1">
          <mxGeometry x="1550" y="430" width="240" height="60" as="geometry" />
        </mxCell>
        <mxCell id="5lB07v6buuz0UZQHZTTG-439" style="edgeStyle=orthogonalEdgeStyle;rounded=0;orthogonalLoop=1;jettySize=auto;html=1;exitX=0.5;exitY=1;exitDx=0;exitDy=0;entryX=0.547;entryY=0.03;entryDx=0;entryDy=0;entryPerimeter=0;" edge="1" parent="1" source="5lB07v6buuz0UZQHZTTG-433" target="5lB07v6buuz0UZQHZTTG-438">
          <mxGeometry relative="1" as="geometry" />
        </mxCell>
        <mxCell id="5lB07v6buuz0UZQHZTTG-440" value="" style="ellipse;html=1;shape=startState;fillColor=#000000;strokeColor=#FFFFFF;" vertex="1" parent="1">
          <mxGeometry x="1654.8" y="50" width="30" height="30" as="geometry" />
        </mxCell>
        <mxCell id="5lB07v6buuz0UZQHZTTG-441" value="" style="shape=line;html=1;strokeWidth=6;strokeColor=#000000;" vertex="1" parent="1">
          <mxGeometry x="1350" y="520" width="630" height="10" as="geometry" />
        </mxCell>
        <mxCell id="5lB07v6buuz0UZQHZTTG-442" style="edgeStyle=orthogonalEdgeStyle;rounded=0;orthogonalLoop=1;jettySize=auto;html=1;exitX=0.5;exitY=1;exitDx=0;exitDy=0;entryX=0.532;entryY=0.488;entryDx=0;entryDy=0;entryPerimeter=0;" edge="1" parent="1" source="5lB07v6buuz0UZQHZTTG-438" target="5lB07v6buuz0UZQHZTTG-441">
          <mxGeometry relative="1" as="geometry" />
        </mxCell>
        <mxCell id="5lB07v6buuz0UZQHZTTG-443" style="edgeStyle=orthogonalEdgeStyle;rounded=0;orthogonalLoop=1;jettySize=auto;html=1;exitX=0.5;exitY=1;exitDx=0;exitDy=0;entryX=0.5;entryY=0;entryDx=0;entryDy=0;fontSize=16;" edge="1" parent="1" source="5lB07v6buuz0UZQHZTTG-444" target="5lB07v6buuz0UZQHZTTG-446">
          <mxGeometry relative="1" as="geometry" />
        </mxCell>
        <mxCell id="5lB07v6buuz0UZQHZTTG-444" value="View Profile" style="rounded=1;whiteSpace=wrap;html=1;fontSize=16;" vertex="1" parent="1">
          <mxGeometry x="1386.53" y="597.5" width="123.47" height="30" as="geometry" />
        </mxCell>
        <mxCell id="5lB07v6buuz0UZQHZTTG-445" style="edgeStyle=orthogonalEdgeStyle;rounded=0;orthogonalLoop=1;jettySize=auto;html=1;exitX=1;exitY=0.5;exitDx=0;exitDy=0;entryX=1;entryY=0.25;entryDx=0;entryDy=0;" edge="1" parent="1" source="5lB07v6buuz0UZQHZTTG-446" target="5lB07v6buuz0UZQHZTTG-444">
          <mxGeometry relative="1" as="geometry" />
        </mxCell>
        <mxCell id="5lB07v6buuz0UZQHZTTG-446" value="Edit" style="rhombus;whiteSpace=wrap;html=1;fontSize=16;" vertex="1" parent="1">
          <mxGeometry x="1415" y="642.5" width="60" height="40" as="geometry" />
        </mxCell>
        <mxCell id="5lB07v6buuz0UZQHZTTG-447" value="No" style="text;html=1;align=center;verticalAlign=middle;resizable=0;points=[];autosize=1;strokeColor=none;fillColor=none;fontSize=16;" vertex="1" parent="1">
          <mxGeometry x="1463.47" y="627.5" width="40" height="30" as="geometry" />
        </mxCell>
        <mxCell id="5lB07v6buuz0UZQHZTTG-448" style="edgeStyle=orthogonalEdgeStyle;rounded=0;orthogonalLoop=1;jettySize=auto;html=1;exitX=0.5;exitY=1;exitDx=0;exitDy=0;entryX=0.5;entryY=0;entryDx=0;entryDy=0;fontSize=16;" edge="1" parent="1" source="5lB07v6buuz0UZQHZTTG-449" target="5lB07v6buuz0UZQHZTTG-450">
          <mxGeometry relative="1" as="geometry" />
        </mxCell>
        <mxCell id="5lB07v6buuz0UZQHZTTG-449" value="Edit Profile" style="rounded=1;whiteSpace=wrap;html=1;fontSize=16;" vertex="1" parent="1">
          <mxGeometry x="1383.47" y="697.5" width="130" height="30" as="geometry" />
        </mxCell>
        <mxCell id="5lB07v6buuz0UZQHZTTG-450" value="Update Profile" style="rounded=1;whiteSpace=wrap;html=1;fontSize=16;" vertex="1" parent="1">
          <mxGeometry x="1386.53" y="747.5" width="116.94" height="30" as="geometry" />
        </mxCell>
        <mxCell id="5lB07v6buuz0UZQHZTTG-451" value="Update&lt;br style=&quot;font-size: 16px;&quot;&gt;&lt;div style=&quot;font-size: 16px;&quot;&gt;&lt;span style=&quot;background-color: initial; font-size: 16px;&quot;&gt;Successfully&lt;/span&gt;&amp;nbsp;&lt;/div&gt;" style="rounded=1;whiteSpace=wrap;html=1;fontSize=16;" vertex="1" parent="1">
          <mxGeometry x="1390" y="792.5" width="116.94" height="37.5" as="geometry" />
        </mxCell>
        <mxCell id="5lB07v6buuz0UZQHZTTG-452" value="Yes" style="text;html=1;align=center;verticalAlign=middle;resizable=0;points=[];autosize=1;strokeColor=none;fillColor=none;fontSize=16;" vertex="1" parent="1">
          <mxGeometry x="1383.47" y="667.5" width="50" height="30" as="geometry" />
        </mxCell>
        <mxCell id="5lB07v6buuz0UZQHZTTG-453" style="edgeStyle=orthogonalEdgeStyle;rounded=0;orthogonalLoop=1;jettySize=auto;html=1;exitX=0.5;exitY=1;exitDx=0;exitDy=0;entryX=0.488;entryY=-0.05;entryDx=0;entryDy=0;entryPerimeter=0;fontSize=16;" edge="1" parent="1" source="5lB07v6buuz0UZQHZTTG-446" target="5lB07v6buuz0UZQHZTTG-449">
          <mxGeometry relative="1" as="geometry" />
        </mxCell>
        <mxCell id="5lB07v6buuz0UZQHZTTG-454" style="edgeStyle=orthogonalEdgeStyle;rounded=0;orthogonalLoop=1;jettySize=auto;html=1;exitX=0.5;exitY=1;exitDx=0;exitDy=0;fontSize=16;" edge="1" parent="1" source="5lB07v6buuz0UZQHZTTG-450" target="5lB07v6buuz0UZQHZTTG-451">
          <mxGeometry relative="1" as="geometry">
            <Array as="points">
              <mxPoint x="1448" y="778" />
            </Array>
          </mxGeometry>
        </mxCell>
        <mxCell id="5lB07v6buuz0UZQHZTTG-455" style="edgeStyle=orthogonalEdgeStyle;rounded=0;orthogonalLoop=1;jettySize=auto;html=1;exitX=0.5;exitY=1;exitDx=0;exitDy=0;entryX=0.5;entryY=0;entryDx=0;entryDy=0;" edge="1" parent="1" source="5lB07v6buuz0UZQHZTTG-456" target="5lB07v6buuz0UZQHZTTG-444">
          <mxGeometry relative="1" as="geometry" />
        </mxCell>
        <mxCell id="5lB07v6buuz0UZQHZTTG-456" value="Manage Profile" style="rounded=1;whiteSpace=wrap;html=1;fontSize=16;" vertex="1" parent="1">
          <mxGeometry x="1390" y="550" width="116.94" height="30" as="geometry" />
        </mxCell>
        <mxCell id="5lB07v6buuz0UZQHZTTG-457" value="" style="endArrow=classic;html=1;rounded=0;" edge="1" parent="1">
          <mxGeometry width="50" height="50" relative="1" as="geometry">
            <mxPoint x="1450" y="520" as="sourcePoint" />
            <mxPoint x="1450" y="550" as="targetPoint" />
          </mxGeometry>
        </mxCell>
        <mxCell id="5lB07v6buuz0UZQHZTTG-458" value="Order Manage" style="rounded=1;whiteSpace=wrap;html=1;fontSize=16;" vertex="1" parent="1">
          <mxGeometry x="1619.8" y="550" width="116.94" height="30" as="geometry" />
        </mxCell>
        <mxCell id="5lB07v6buuz0UZQHZTTG-459" style="edgeStyle=orthogonalEdgeStyle;rounded=0;orthogonalLoop=1;jettySize=auto;html=1;exitX=0.25;exitY=0.5;exitDx=0;exitDy=0;exitPerimeter=0;entryX=0.5;entryY=0;entryDx=0;entryDy=0;" edge="1" parent="1" source="5lB07v6buuz0UZQHZTTG-460" target="5lB07v6buuz0UZQHZTTG-463">
          <mxGeometry relative="1" as="geometry" />
        </mxCell>
        <mxCell id="5lB07v6buuz0UZQHZTTG-460" value="" style="shape=line;html=1;strokeWidth=6;strokeColor=#000000;" vertex="1" parent="1">
          <mxGeometry x="1559.8" y="607.5" width="250.2" height="10" as="geometry" />
        </mxCell>
        <mxCell id="5lB07v6buuz0UZQHZTTG-461" style="edgeStyle=orthogonalEdgeStyle;rounded=0;orthogonalLoop=1;jettySize=auto;html=1;exitX=0.5;exitY=1;exitDx=0;exitDy=0;entryX=0.476;entryY=0.117;entryDx=0;entryDy=0;entryPerimeter=0;" edge="1" parent="1" source="5lB07v6buuz0UZQHZTTG-458" target="5lB07v6buuz0UZQHZTTG-460">
          <mxGeometry relative="1" as="geometry" />
        </mxCell>
        <mxCell id="5lB07v6buuz0UZQHZTTG-462" style="edgeStyle=orthogonalEdgeStyle;rounded=0;orthogonalLoop=1;jettySize=auto;html=1;exitX=0.5;exitY=1;exitDx=0;exitDy=0;entryX=0.5;entryY=0;entryDx=0;entryDy=0;" edge="1" parent="1" source="5lB07v6buuz0UZQHZTTG-463" target="5lB07v6buuz0UZQHZTTG-466">
          <mxGeometry relative="1" as="geometry" />
        </mxCell>
        <mxCell id="5lB07v6buuz0UZQHZTTG-463" value="&lt;font style=&quot;font-size: 16px;&quot;&gt;Delivery Order&lt;/font&gt;" style="rounded=1;whiteSpace=wrap;html=1;fontSize=16;" vertex="1" parent="1">
          <mxGeometry x="1559.8" y="640" width="116.94" height="30" as="geometry" />
        </mxCell>
        <mxCell id="5lB07v6buuz0UZQHZTTG-464" value="&lt;span style=&quot;font-size: 17px;&quot;&gt;Return Order&lt;/span&gt;" style="rounded=1;whiteSpace=wrap;html=1;fontSize=16;" vertex="1" parent="1">
          <mxGeometry x="1693.06" y="640" width="116.94" height="30" as="geometry" />
        </mxCell>
        <mxCell id="5lB07v6buuz0UZQHZTTG-465" style="edgeStyle=orthogonalEdgeStyle;rounded=0;orthogonalLoop=1;jettySize=auto;html=1;exitX=0.75;exitY=0.5;exitDx=0;exitDy=0;exitPerimeter=0;entryX=0.58;entryY=0.162;entryDx=0;entryDy=0;entryPerimeter=0;" edge="1" parent="1" source="5lB07v6buuz0UZQHZTTG-460" target="5lB07v6buuz0UZQHZTTG-464">
          <mxGeometry relative="1" as="geometry" />
        </mxCell>
        <mxCell id="5lB07v6buuz0UZQHZTTG-466" value="&lt;font style=&quot;font-size: 17px;&quot;&gt;Update Status to Out Of&lt;/font&gt;&lt;div style=&quot;font-size: 17px;&quot;&gt;Delivery&amp;nbsp;&lt;/div&gt;" style="rounded=1;whiteSpace=wrap;html=1;fontSize=16;" vertex="1" parent="1">
          <mxGeometry x="1556.54" y="697.5" width="120.2" height="90" as="geometry" />
        </mxCell>
        <mxCell id="5lB07v6buuz0UZQHZTTG-467" value="&lt;font style=&quot;&quot;&gt;&lt;font style=&quot;font-size: 17px;&quot;&gt;Update Statues to Returned&lt;/font&gt;&lt;br&gt;&lt;/font&gt;" style="rounded=1;whiteSpace=wrap;html=1;fontSize=16;" vertex="1" parent="1">
          <mxGeometry x="1699.8" y="697.5" width="120.2" height="90" as="geometry" />
        </mxCell>
        <mxCell id="5lB07v6buuz0UZQHZTTG-468" value="" style="shape=line;html=1;strokeWidth=6;strokeColor=#000000;" vertex="1" parent="1">
          <mxGeometry x="1330" y="910" width="640" height="10" as="geometry" />
        </mxCell>
        <mxCell id="5lB07v6buuz0UZQHZTTG-469" style="edgeStyle=orthogonalEdgeStyle;rounded=0;orthogonalLoop=1;jettySize=auto;html=1;exitX=0.5;exitY=1;exitDx=0;exitDy=0;entryX=0.199;entryY=0.046;entryDx=0;entryDy=0;entryPerimeter=0;" edge="1" parent="1" source="5lB07v6buuz0UZQHZTTG-451" target="5lB07v6buuz0UZQHZTTG-468">
          <mxGeometry relative="1" as="geometry" />
        </mxCell>
        <mxCell id="5lB07v6buuz0UZQHZTTG-470" value="" style="shape=line;html=1;strokeWidth=6;strokeColor=#000000;" vertex="1" parent="1">
          <mxGeometry x="1556.54" y="820" width="263.46" height="10" as="geometry" />
        </mxCell>
        <mxCell id="5lB07v6buuz0UZQHZTTG-471" style="edgeStyle=orthogonalEdgeStyle;rounded=0;orthogonalLoop=1;jettySize=auto;html=1;exitX=0.5;exitY=1;exitDx=0;exitDy=0;entryX=0.25;entryY=0.5;entryDx=0;entryDy=0;entryPerimeter=0;" edge="1" parent="1" source="5lB07v6buuz0UZQHZTTG-466" target="5lB07v6buuz0UZQHZTTG-470">
          <mxGeometry relative="1" as="geometry" />
        </mxCell>
        <mxCell id="5lB07v6buuz0UZQHZTTG-472" style="edgeStyle=orthogonalEdgeStyle;rounded=0;orthogonalLoop=1;jettySize=auto;html=1;exitX=0.5;exitY=1;exitDx=0;exitDy=0;entryX=0.789;entryY=0.123;entryDx=0;entryDy=0;entryPerimeter=0;" edge="1" parent="1" source="5lB07v6buuz0UZQHZTTG-467" target="5lB07v6buuz0UZQHZTTG-470">
          <mxGeometry relative="1" as="geometry" />
        </mxCell>
        <mxCell id="5lB07v6buuz0UZQHZTTG-473" style="edgeStyle=orthogonalEdgeStyle;rounded=0;orthogonalLoop=1;jettySize=auto;html=1;exitX=0.5;exitY=1;exitDx=0;exitDy=0;entryX=0.199;entryY=0.046;entryDx=0;entryDy=0;entryPerimeter=0;" edge="1" parent="1">
          <mxGeometry relative="1" as="geometry">
            <mxPoint x="1684.1399999999999" y="830" as="sourcePoint" />
            <mxPoint x="1685.1399999999999" y="910" as="targetPoint" />
          </mxGeometry>
        </mxCell>
        <mxCell id="5lB07v6buuz0UZQHZTTG-474" style="edgeStyle=orthogonalEdgeStyle;rounded=0;orthogonalLoop=1;jettySize=auto;html=1;exitX=0.5;exitY=1;exitDx=0;exitDy=0;" edge="1" parent="1" source="5lB07v6buuz0UZQHZTTG-475">
          <mxGeometry relative="1" as="geometry">
            <mxPoint x="1911.5454545454545" y="630" as="targetPoint" />
          </mxGeometry>
        </mxCell>
        <mxCell id="5lB07v6buuz0UZQHZTTG-475" value="Manage Payment" style="rounded=1;whiteSpace=wrap;html=1;fontSize=16;" vertex="1" parent="1">
          <mxGeometry x="1853.06" y="550" width="116.94" height="40" as="geometry" />
        </mxCell>
        <mxCell id="5lB07v6buuz0UZQHZTTG-476" value="" style="endArrow=classic;html=1;rounded=0;" edge="1" parent="1">
          <mxGeometry width="50" height="50" relative="1" as="geometry">
            <mxPoint x="1911.0800000000002" y="520" as="sourcePoint" />
            <mxPoint x="1911.0800000000002" y="550" as="targetPoint" />
          </mxGeometry>
        </mxCell>
        <mxCell id="5lB07v6buuz0UZQHZTTG-477" value="" style="endArrow=classic;html=1;rounded=0;" edge="1" parent="1">
          <mxGeometry width="50" height="50" relative="1" as="geometry">
            <mxPoint x="1675.8300000000002" y="520" as="sourcePoint" />
            <mxPoint x="1675.8300000000002" y="550" as="targetPoint" />
          </mxGeometry>
        </mxCell>
        <mxCell id="5lB07v6buuz0UZQHZTTG-478" value="View Payment Detailes" style="rounded=1;whiteSpace=wrap;html=1;fontSize=16;" vertex="1" parent="1">
          <mxGeometry x="1853.06" y="630" width="116.94" height="40" as="geometry" />
        </mxCell>
        <mxCell id="5lB07v6buuz0UZQHZTTG-479" style="edgeStyle=orthogonalEdgeStyle;rounded=0;orthogonalLoop=1;jettySize=auto;html=1;exitX=0.5;exitY=1;exitDx=0;exitDy=0;entryX=0.95;entryY=0.291;entryDx=0;entryDy=0;entryPerimeter=0;" edge="1" parent="1" source="5lB07v6buuz0UZQHZTTG-478" target="5lB07v6buuz0UZQHZTTG-468">
          <mxGeometry relative="1" as="geometry" />
        </mxCell>
        <mxCell id="5lB07v6buuz0UZQHZTTG-480" value="" style="ellipse;html=1;shape=endState;fillColor=#000000;strokeColor=#000000;" vertex="1" parent="1">
          <mxGeometry x="1673.27" y="1030" width="30" height="30" as="geometry" />
        </mxCell>
        <mxCell id="5lB07v6buuz0UZQHZTTG-483" style="edgeStyle=orthogonalEdgeStyle;rounded=0;orthogonalLoop=1;jettySize=auto;html=1;exitX=0.5;exitY=1;exitDx=0;exitDy=0;entryX=0.5;entryY=0;entryDx=0;entryDy=0;" edge="1" parent="1" source="5lB07v6buuz0UZQHZTTG-481" target="5lB07v6buuz0UZQHZTTG-480">
          <mxGeometry relative="1" as="geometry" />
        </mxCell>
        <mxCell id="5lB07v6buuz0UZQHZTTG-481" value="Logout&amp;nbsp;" style="rounded=1;whiteSpace=wrap;html=1;fontSize=16;" vertex="1" parent="1">
          <mxGeometry x="1629.8" y="970" width="116.94" height="37.5" as="geometry" />
        </mxCell>
        <mxCell id="5lB07v6buuz0UZQHZTTG-482" style="edgeStyle=orthogonalEdgeStyle;rounded=0;orthogonalLoop=1;jettySize=auto;html=1;entryX=0.25;entryY=0.5;entryDx=0;entryDy=0;entryPerimeter=0;" edge="1" parent="1">
          <mxGeometry relative="1" as="geometry">
            <mxPoint x="1685" y="920" as="sourcePoint" />
            <mxPoint x="1684.8" y="967" as="targetPoint" />
          </mxGeometry>
        </mxCell>
      </root>
    </mxGraphModel>
  </diagram>
</mxfile>
